<?xml version="1.0" encoding="UTF-8"?>
<svg width="128px" height="128px" viewBox="0 0 128 128" version="1.1" xmlns="http://www.w3.org/2000/svg" xmlns:xlink="http://www.w3.org/1999/xlink">
    <!-- Generator: Sketch 50.2 (55047) - http://www.bohemiancoding.com/sketch -->
    <title>Group Copy</title>
    <desc>Created with Sketch.</desc>
    <defs></defs>
    <g id="Page-1" stroke="none" stroke-width="1" fill="none" fill-rule="evenodd">
        <g id="Desktop-Copy-7" transform="translate(-111.000000, -72.000000)">
            <g id="Group-Copy" transform="translate(112.000000, 73.000000)">
                <circle id="Oval" stroke="#FFAA00" fill="#F4FFFD" cx="63" cy="63" r="63"></circle>
                <g id="charity-(1)" transform="translate(13.000000, 14.000000)" fill="#FFAA00" fill-rule="nonzero">
                    <path d="M61.1013856,1.61846821 C59.9708089,0.525043754 58.5239303,0 57.0656972,0 C55.4241713,0 53.7664247,0.665055421 52.530414,1.93682807 L52,2.48187349 L51.469586,1.93516126 C50.2335753,0.665055421 48.5758287,0 46.9343028,0 C45.4760697,0 44.0291911,0.525043754 42.8986144,1.61846821 C40.4119946,4.02366864 40.3681989,8.04733728 42.7656054,10.5108759 L52,20 L61.2343946,10.5108759 C63.6318011,8.04733728 63.5880054,4.02366864 61.1013856,1.61846821 Z" id="Shape"></path>
                    <path d="M102.694838,62.1775385 C99.5715837,60.0792308 95.8914977,60.6736923 92.6326049,62.5384615 C89.373712,64.4032308 70.6627413,80.2626154 70.6627413,80.2626154 L52.2444641,80.2661538 C51.3878,80.2661538 50.4597473,79.3107692 50.4597473,78.4650769 C50.4597473,77.4707692 51.3342585,76.6958462 52.2444641,76.6958462 L63.5131658,76.6958462 C67.4573899,76.6958462 71.8727792,74.1481538 71.8727792,69.6189231 C71.8727792,64.8066154 67.4573899,62.542 63.5131658,62.542 C56.6705617,62.542 55.339163,62.5703077 55.339163,62.5703077 C52.597838,62.5703077 49.8172492,62.4075385 47.6755891,61.2716923 C44.8200423,59.8209231 41.5290245,59 38.0167019,59 C32.1199976,59 26.8408054,61.3318462 23.2213997,65.0083077 L0.596933785,86.7520968 C3.54763587,92.3875362 6.0576325,96.1111963 8.12692369,97.9230769 C10.1962149,99.7349576 15.2277069,102.614659 23.2213997,106.562181 L32.5554685,97.9230769 L68.7031222,97.9230769 C72.3011113,97.9230769 75.7741701,96.6138462 78.4619536,94.2466154 L102.93756,67.0287692 C104.433152,65.7124615 104.347486,63.2921538 102.694838,62.1775385 Z" id="Shape" opacity="0.566964286"></path>
                </g>
                <text id="Volunhub" font-family="Lobster1.4, Lobster 1.4" font-size="30" font-weight="normal" letter-spacing="0.1824982" fill="#ED254E">
                    <tspan x="5" y="65">Volunhub</tspan>
                </text>
            </g>
        </g>
    </g>
</svg>